<svg xmlns="http://www.w3.org/2000/svg" xmlns:xlink="http://www.w3.org/1999/xlink">
   <!-- LOGO -->
   <symbol viewBox="0 0 46 43" id="logo">
      <path fill-rule="evenodd" clip-rule="evenodd" d="M0 24.0481V42.8481H16.424V40.1881L0 24.0481Z" fill="#326CF9"/>
      <path fill-rule="evenodd" clip-rule="evenodd" d="M28.691 42.852H45.1131V24.052L28.6951 40.193L28.691 42.852Z" fill="#326CF9"/>
      <path fill-rule="evenodd" clip-rule="evenodd" d="M45.115 0.844002L22.605 22.971L0 0.75V19.87L22.605 42.091L45.111 19.968L45.115 0.844002Z" fill="#326CF9"/>
   </symbol>


   <!-- Smile Emoji -->
   <symbol viewBox="0 0 37 38" id="smile-emoji">
      <circle cx="18.4999" cy="18.5002" r="18.5" fill="#FFD93B"/>
      <path fill-rule="evenodd" clip-rule="evenodd" d="M18.503 30.3922C13.0954 30.3931 8.37634 26.7255 7.04196 21.4852C6.97006 21.2174 7.04776 20.9315 7.24536 20.7369C7.44296 20.5424 7.72995 20.4691 7.99667 20.5452C8.26337 20.6211 8.4686 20.8347 8.53397 21.1042C9.69363 25.6626 13.7979 28.8534 18.5014 28.8534C23.205 28.8534 27.3093 25.6626 28.469 21.1041C28.5791 20.6975 28.9954 20.4546 29.4037 20.5587C29.8119 20.6628 30.061 21.0754 29.9629 21.4852C28.6296 26.7258 23.9105 30.3936 18.503 30.3922Z" fill="#3E4347"/>
      <path fill-rule="evenodd" clip-rule="evenodd" d="M36.9999 18.5033C36.9999 26.3439 32.0547 33.3343 24.6593 35.9456C17.2639 38.5568 9.02573 36.2211 4.10132 30.1169C11.4605 36.0486 22.1076 35.4788 28.7917 28.7954C35.4757 22.1122 36.0468 11.4651 30.1159 4.10522C34.4718 7.61511 37.0031 12.9093 36.9999 18.5033Z" fill="#F4C534"/>
      <ellipse cx="12.5309" cy="15.9252" rx="2.835" ry="3.369" fill="#3E4347"/>
      <path fill-rule="evenodd" clip-rule="evenodd" d="M13.8079 15.2001C13.5274 15.3618 13.1695 15.2767 12.9919 15.0061C12.8141 14.8754 12.7363 14.6478 12.7969 14.4357C12.8575 14.2235 13.0438 14.0714 13.2638 14.0543C13.4838 14.0372 13.6913 14.1588 13.7839 14.3591C14.0134 14.5889 14.0239 14.9576 13.8079 15.2001Z" fill="#5A5F63"/>
      <ellipse cx="24.4809" cy="15.9252" rx="2.835" ry="3.369" fill="#3E4347"/>
      <path fill-rule="evenodd" clip-rule="evenodd" d="M25.7559 15.2001C25.4754 15.3618 25.1175 15.2767 24.9399 15.0061C24.7621 14.8754 24.6843 14.6478 24.7449 14.4357C24.8055 14.2235 24.9918 14.0713 25.2118 14.0543C25.4318 14.0372 25.6393 14.1588 25.7319 14.3591C25.9614 14.5889 25.9719 14.9576 25.7559 15.2001Z" fill="#5A5F63"/>
   </symbol>
   <!-- Happy Emoji -->
   <symbol viewBox="0 0 32 32" id="happy-emoji">
      <circle cx="16" cy="16.0002" r="16" fill="#FFD93B"/>
      <path fill-rule="evenodd" clip-rule="evenodd" d="M25.7928 20.9852C24.141 24.9316 20.2811 27.5004 16.0028 27.5004C11.7246 27.5004 7.86469 24.9316 6.21283 20.9852C6.05688 20.6265 6.09863 20.2124 6.32312 19.8921C6.54755 19.5717 6.92242 19.3911 7.31281 19.4152C13.097 19.7821 18.8986 19.7821 24.6827 19.4152C25.0733 19.392 25.4482 19.5721 25.6741 19.8916C25.9 20.2111 25.9449 20.6246 25.7928 20.9852Z" fill="#3E4347"/>
      <path fill-rule="evenodd" clip-rule="evenodd" d="M31.5729 16.0002C31.5761 22.6046 27.4122 28.4933 21.1838 30.692C14.9553 32.8907 8.0174 30.9211 3.87329 25.7777C10.0688 30.7758 19.0361 30.2974 24.6646 24.6686C30.2932 19.0398 30.7712 10.0725 25.7729 3.8772C29.4421 6.83154 31.5749 11.2894 31.5729 16.0002H31.5729Z" fill="#F4C534"/>
      <ellipse cx="9.58005" cy="11.7132" rx="5.655" ry="5.66" fill="white"/>
      <path fill-rule="evenodd" clip-rule="evenodd" d="M13.629 11.3541C13.6311 12.514 12.9336 13.561 11.8622 14.006C10.7908 14.4509 9.55688 14.2061 8.73657 13.3859C7.9162 12.5656 7.67126 11.3317 8.11609 10.2601C8.56091 9.18872 9.60779 8.49121 10.7679 8.49316C11.5271 8.49182 12.2556 8.79272 12.7925 9.32959C13.3293 9.86646 13.6303 10.595 13.629 11.3541Z" fill="#3E4347"/>
      <path fill-rule="evenodd" clip-rule="evenodd" d="M12.4128 10.8103C12.2179 11.0104 11.8129 10.9174 11.5079 10.6104C11.2029 10.3033 11.1079 9.91028 11.3079 9.70532C11.5079 9.50037 11.9079 9.60535 12.2129 9.90527C12.5179 10.2053 12.6169 10.6154 12.4128 10.8103Z" fill="white"/>
      <ellipse cx="22.4201" cy="11.7132" rx="5.655" ry="5.66" fill="white"/>
      <path fill-rule="evenodd" clip-rule="evenodd" d="M18.0911 11.3541C18.089 12.514 18.7864 13.561 19.8578 14.006C20.9292 14.4509 22.1631 14.2061 22.9835 13.3859C23.8038 12.5656 24.0488 11.3317 23.604 10.2601C23.1591 9.18872 22.1123 8.49121 20.9521 8.49316C20.193 8.49182 19.4645 8.79272 18.9276 9.32959C18.3907 9.86646 18.0897 10.595 18.0911 11.3541Z" fill="#3E4347"/>
      <path fill-rule="evenodd" clip-rule="evenodd" d="M19.3071 10.8103C19.5021 11.0104 19.907 10.9174 20.2121 10.6104C20.517 10.3033 20.6121 9.91028 20.412 9.70532C20.2121 9.50037 19.8121 9.60535 19.5071 9.90527C19.2021 10.2053 19.0991 10.6154 19.3071 10.8103Z" fill="white"/>
      <path fill-rule="evenodd" clip-rule="evenodd" d="M7.31305 19.4161C7.24603 19.4149 7.17914 19.42 7.11304 19.4312C8.92004 21.8782 12.2131 22.0132 15.996 22.0132C19.7791 22.0132 23.0721 21.8782 24.8791 19.4312C24.813 19.4203 24.746 19.4152 24.6791 19.4161C18.8961 19.7828 13.0958 19.7828 7.31287 19.4161H7.31305Z" fill="white"/>
      <path fill-rule="evenodd" clip-rule="evenodd" d="M15.998 27.5012C17.5624 27.5027 19.1077 27.1567 20.522 26.4883C20.4661 25.3923 20.0116 24.3545 19.2441 23.5703C18.6375 22.9619 17.7358 22.7555 16.925 23.0393C16.1608 23.3049 15.3572 23.4402 14.548 23.4392C13.0789 23.448 11.8216 24.4957 11.548 25.9392C11.5191 26.1243 11.5021 26.3109 11.4971 26.4982C12.9052 27.1598 14.4422 27.5023 15.998 27.5012Z" fill="#E24B4B"/>
   </symbol>
   <!-- Party Emoji -->
   <symbol viewBox="0 0 44 43" id="party-emoji">
      <path fill-rule="evenodd" clip-rule="evenodd" d="M13.5742 12.9863L21.0062 1.06628C21.1288 0.850342 21.3579 0.717041 21.6062 0.717041C21.8545 0.717041 22.0836 0.850342 22.2062 1.06628L29.6332 12.9863H13.5742Z" fill="#955BA5"/>
      <path fill-rule="evenodd" clip-rule="evenodd" d="M9.36108 2.16125C8.96338 2.16125 8.64111 1.83887 8.64111 1.44128V0.720215C8.64111 0.322632 8.96338 0.000244141 9.36108 0.000244141C9.75867 0.000244141 10.0811 0.322632 10.0811 0.720215V1.44019C10.0813 1.63135 10.0056 1.8147 9.87061 1.94995C9.73547 2.0852 9.55225 2.16125 9.36108 2.16125Z" fill="#F0C419"/>
      <path fill-rule="evenodd" clip-rule="evenodd" d="M9.36108 5.76111C8.96338 5.76111 8.64111 5.43872 8.64111 5.04114V4.32104C8.64111 3.92346 8.96338 3.60107 9.36108 3.60107C9.75867 3.60107 10.0811 3.92346 10.0811 4.32104V5.04114C10.0811 5.43872 9.75867 5.76111 9.36108 5.76111Z" fill="#F0C419"/>
      <path fill-rule="evenodd" clip-rule="evenodd" d="M7.9209 3.60107H7.20093C6.80334 3.60107 6.48096 3.27869 6.48096 2.8811C6.48096 2.4834 6.80334 2.16113 7.20093 2.16113H7.9209C8.3186 2.16113 8.64099 2.4834 8.64099 2.8811C8.64099 3.27869 8.3186 3.60107 7.9209 3.60107Z" fill="#F0C419"/>
      <path fill-rule="evenodd" clip-rule="evenodd" d="M11.5221 3.60107H10.8021C10.4044 3.60107 10.082 3.27869 10.082 2.8811C10.082 2.4834 10.4044 2.16113 10.8021 2.16113H11.5221C11.9197 2.16113 12.2421 2.4834 12.2421 2.8811C12.2421 3.27869 11.9197 3.60107 11.5221 3.60107Z" fill="#F0C419"/>
      <path fill-rule="evenodd" clip-rule="evenodd" d="M2.88 10.0812C2.4823 10.0812 2.15991 9.75879 2.15991 9.36121V8.64124C2.15991 8.24353 2.4823 7.92114 2.88 7.92114C3.27759 7.92114 3.59998 8.24353 3.59998 8.64124V9.36121C3.59998 9.75879 3.27759 10.0812 2.88 10.0812Z" fill="#F0C419"/>
      <path fill-rule="evenodd" clip-rule="evenodd" d="M2.88 13.6873C2.4823 13.6873 2.15991 13.365 2.15991 12.9673V12.2473C2.15991 11.8496 2.4823 11.5273 2.88 11.5273C3.27759 11.5273 3.59998 11.8496 3.59998 12.2473V12.9673C3.59998 13.365 3.27759 13.6873 2.88 13.6873Z" fill="#F0C419"/>
      <path fill-rule="evenodd" clip-rule="evenodd" d="M1.43994 11.5221H0.719971C0.322021 11.5221 -0.000488281 11.1995 -0.000488281 10.8015C-0.000488281 10.4037 0.322021 10.0811 0.719971 10.0811H1.43994C1.83789 10.0811 2.16052 10.4037 2.16052 10.8015C2.16052 11.1995 1.83789 11.5221 1.43994 11.5221Z" fill="#F0C419"/>
      <path fill-rule="evenodd" clip-rule="evenodd" d="M5.04114 11.5221H4.32117C3.92322 11.5221 3.60059 11.1995 3.60059 10.8015C3.60059 10.4037 3.92322 10.0811 4.32117 10.0811H5.04114C5.43909 10.0811 5.7616 10.4037 5.7616 10.8015C5.7616 11.1995 5.43909 11.5221 5.04114 11.5221Z" fill="#F0C419"/>
      <path fill-rule="evenodd" clip-rule="evenodd" d="M33.125 3.60144C32.7273 3.60144 32.405 3.27905 32.405 2.88135V2.16138C32.405 1.76379 32.7274 1.44141 33.125 1.44141C33.5227 1.44141 33.845 1.76379 33.845 2.16138V2.88135C33.8451 3.27905 33.5227 3.60144 33.125 3.60144Z" fill="#F0C419"/>
      <path fill-rule="evenodd" clip-rule="evenodd" d="M33.125 7.20129C32.7273 7.20129 32.405 6.87891 32.405 6.4812V5.76123C32.405 5.36365 32.7274 5.04126 33.125 5.04126C33.5227 5.04126 33.845 5.36365 33.845 5.76123V6.4812C33.8451 6.87891 33.5227 7.20129 33.125 7.20129Z" fill="#F0C419"/>
      <path fill-rule="evenodd" clip-rule="evenodd" d="M31.6849 5.04114H30.965C30.7075 5.0415 30.4695 4.9043 30.3406 4.6814C30.2117 4.4585 30.2118 4.18372 30.3406 3.96082C30.4695 3.73792 30.7075 3.60071 30.965 3.60107H31.6849C31.9424 3.60071 32.1804 3.73792 32.3093 3.96082C32.4381 4.18372 32.4381 4.4585 32.3093 4.6814C32.1804 4.9043 31.9424 5.0415 31.6848 5.04114H31.6849Z" fill="#F0C419"/>
      <path fill-rule="evenodd" clip-rule="evenodd" d="M35.286 5.04114H34.5659C34.3086 5.0415 34.0704 4.9043 33.9417 4.6814C33.8127 4.4585 33.8127 4.18372 33.9417 3.96082C34.0706 3.73792 34.3086 3.60071 34.566 3.60107H35.286C35.5435 3.60071 35.7815 3.73792 35.9104 3.96082C36.0392 4.18372 36.0392 4.4585 35.9103 4.6814C35.7815 4.9043 35.5435 5.0415 35.2859 5.04114H35.286Z" fill="#F0C419"/>
      <path fill-rule="evenodd" clip-rule="evenodd" d="M40.3259 10.8022C39.9283 10.8022 39.606 10.48 39.606 10.0823V9.3623C39.606 8.9646 39.9283 8.64233 40.3259 8.64233C40.7236 8.64233 41.046 8.9646 41.046 9.3623V10.0823C41.046 10.48 40.7236 10.8022 40.3259 10.8022Z" fill="#F0C419"/>
      <path fill-rule="evenodd" clip-rule="evenodd" d="M40.3259 14.4032C39.9283 14.4032 39.606 14.0808 39.606 13.6831V12.9631C39.606 12.5656 39.9283 12.2432 40.3259 12.2432C40.7236 12.2432 41.046 12.5656 41.046 12.9631V13.6831C41.046 14.0808 40.7236 14.4032 40.3259 14.4032Z" fill="#F0C419"/>
      <path fill-rule="evenodd" clip-rule="evenodd" d="M38.886 12.2422H38.166C37.7683 12.2422 37.446 11.9199 37.446 11.5222C37.446 11.1246 37.7683 10.8022 38.166 10.8022H38.886C39.2837 10.8022 39.606 11.1246 39.606 11.5222C39.606 11.9199 39.2837 12.2422 38.886 12.2422Z" fill="#F0C419"/>
      <path fill-rule="evenodd" clip-rule="evenodd" d="M42.4869 12.2422H41.7668C41.3693 12.2422 41.0469 11.9199 41.0469 11.5222C41.0469 11.1246 41.3693 10.8022 41.7668 10.8022H42.4869C42.8845 10.8022 43.2069 11.1246 43.2069 11.5222C43.2069 11.9199 42.8845 12.2422 42.4869 12.2422Z" fill="#F0C419"/>
      <path fill-rule="evenodd" clip-rule="evenodd" d="M37.446 26.6453C37.446 33.0532 33.5858 38.8302 27.6656 41.2823C21.7454 43.7345 14.9309 42.3789 10.3999 37.8475C5.8689 33.3163 4.51379 26.5018 6.96631 20.5817C9.41882 14.6616 15.196 10.8019 21.604 10.8022C25.8057 10.8022 29.8353 12.4714 32.8063 15.4426C35.7773 18.4138 37.4463 22.4435 37.446 26.6453Z" fill="#F0C419"/>
      <path fill-rule="evenodd" clip-rule="evenodd" d="M18.7229 23.0443C18.5057 23.0446 18.2999 22.9469 18.1628 22.7783C17.62 22.04 16.7583 21.6041 15.8419 21.6041C14.9255 21.6041 14.0637 22.04 13.5209 22.7783C13.2706 23.0874 12.8173 23.1353 12.5081 22.8851C12.1989 22.635 12.1509 22.1816 12.4009 21.8723C13.2177 20.7959 14.4911 20.1636 15.8424 20.1636C17.1936 20.1636 18.467 20.7959 19.2838 21.8723C19.458 22.0883 19.4926 22.385 19.3728 22.6353C19.2531 22.8854 19.0002 23.0446 18.7229 23.0443Z" fill="#E57E25"/>
      <path fill-rule="evenodd" clip-rule="evenodd" d="M12.9618 19.4432C12.7306 19.4431 12.5134 19.332 12.3782 19.1444C12.2429 18.9569 12.2059 18.7157 12.2789 18.4962C12.9802 16.7767 14.71 15.7053 16.5619 15.8433C16.9595 15.8433 17.2819 16.1656 17.2819 16.5632C17.2819 16.9609 16.9595 17.2832 16.5619 17.2832C15.3325 17.1577 14.1595 17.8282 13.6439 18.9513C13.5459 19.2448 13.2712 19.4429 12.9618 19.4432Z" fill="#2C2F38"/>
      <path fill-rule="evenodd" clip-rule="evenodd" d="M30.2449 23.0442C30.0265 23.0444 29.8197 22.9456 29.6829 22.7753C29.1399 22.0377 28.2787 21.6024 27.3629 21.6024C26.4471 21.6024 25.5858 22.0377 25.0428 22.7753C24.7926 23.0844 24.3392 23.1321 24.03 22.882C23.7208 22.6318 23.6729 22.1785 23.9229 21.8693C24.7396 20.7927 26.0131 20.1604 27.3644 20.1604C28.7157 20.1604 29.9891 20.7927 30.8059 21.8693C30.98 22.0852 31.0146 22.3818 30.8949 22.6321C30.775 22.8823 30.5222 23.0415 30.2449 23.0413V23.0442Z" fill="#E57E25"/>
      <path fill-rule="evenodd" clip-rule="evenodd" d="M30.2439 19.4432C29.9362 19.4431 29.6625 19.2474 29.5629 18.9563C29.0463 17.8331 27.8743 17.161 26.6439 17.2822C26.2462 17.2822 25.9238 16.96 25.9238 16.5623C25.9238 16.1647 26.2462 15.8423 26.6439 15.8423C28.4957 15.7043 30.2255 16.7758 30.9269 18.4952C30.9998 18.7147 30.9628 18.9558 30.8275 19.1434C30.6923 19.3311 30.4751 19.4421 30.2438 19.4423L30.2439 19.4432Z" fill="#2C2F38"/>
      <path fill-rule="evenodd" clip-rule="evenodd" d="M32.4019 28.4592C32.4019 28.9592 32.3949 29.4463 32.3519 29.9423C32.3159 30.5056 32.2438 31.0662 32.1359 31.6202C32.1296 31.6758 32.12 31.731 32.1068 31.7853C31.835 33.1599 31.1897 34.4331 30.2418 35.4653C29.8615 35.9021 29.4342 36.2958 28.9679 36.6393C28.2554 37.1831 27.473 37.6288 26.6418 37.9644C26.5189 38.0143 26.3899 38.0643 26.2599 38.1083C25.9209 38.2303 25.5829 38.3313 25.2368 38.4253C24.2834 38.6758 23.3058 38.823 22.3209 38.8643C22.0758 38.8783 21.8379 38.8862 21.6008 38.8862C21.3639 38.8862 21.1259 38.8793 20.8809 38.8643C19.8959 38.823 18.9183 38.6758 17.9648 38.4253C17.6199 38.3313 17.2809 38.2313 16.9419 38.1083C16.8119 38.0643 16.6829 38.0143 16.5598 37.9644C15.7286 37.6288 14.9464 37.1831 14.2339 36.6393C13.7675 36.2958 13.3402 35.9021 12.9598 35.4653C12.0121 34.4331 11.3668 33.1599 11.0948 31.7853C11.0817 31.731 11.072 31.6758 11.0658 31.6202C10.958 31.0662 10.8859 30.5056 10.8499 29.9423C10.8069 29.4423 10.7998 28.9553 10.7998 28.4592C10.8069 28.2502 10.8069 28.0413 10.8219 27.8323C10.8219 27.6882 10.8289 27.5322 10.8429 27.3933C10.8685 27.2651 10.8805 27.1348 10.8788 27.0042C10.8788 27.0043 11.1309 27.1982 11.5789 27.5043H11.5858C11.9458 27.7493 12.4429 28.0582 13.0548 28.3972C13.4548 28.6272 13.9119 28.8652 14.4019 29.0973C15.1172 29.4353 15.8518 29.7312 16.6018 29.9833C17.0558 30.1343 17.5238 30.2712 18.0018 30.3833C18.9458 30.6166 19.9104 30.7566 20.8818 30.8013C21.0688 30.8082 21.2559 30.8152 21.4508 30.8152H21.7509C21.9448 30.8152 22.1328 30.8082 22.3198 30.8013C23.2911 30.7566 24.2559 30.6166 25.1998 30.3833C25.6818 30.2683 26.1498 30.1312 26.5999 29.9833C27.3499 29.7312 28.0845 29.4353 28.7998 29.0973C29.2898 28.8672 29.7428 28.6293 30.1469 28.3972C30.7588 28.0582 31.2628 27.7422 31.6228 27.4973C32.0768 27.1973 32.3229 26.9973 32.3229 26.9973C32.3212 27.1278 32.3333 27.2582 32.3588 27.3862C32.3738 27.5303 32.3798 27.6863 32.3798 27.8252C32.3948 28.0343 32.3948 28.2433 32.4019 28.4523V28.4592Z" fill="white"/>
      <path fill-rule="evenodd" clip-rule="evenodd" d="M32.355 29.9423C32.319 30.5056 32.2468 31.0662 32.139 31.6202C31.5302 32.0421 30.8978 32.4291 30.245 32.7793C29.813 33.0173 29.3311 33.2543 28.8051 33.4923C28.1023 33.8136 27.3811 34.0924 26.645 34.3273C26.184 34.4783 25.702 34.6152 25.205 34.7273C24.259 34.9474 23.2952 35.0813 22.325 35.1272C22.1379 35.1272 21.951 35.1343 21.756 35.1343H21.4561C21.262 35.1343 21.074 35.1272 20.887 35.1272C19.9169 35.0813 18.9529 34.9474 18.0071 34.7273C17.507 34.6123 17.028 34.4752 16.567 34.3273C15.8309 34.0924 15.1096 33.8136 14.407 33.4923C13.881 33.2543 13.3989 33.0173 12.967 32.7793C12.3142 32.4291 11.6819 32.0421 11.073 31.6204C10.9651 31.0662 10.8929 30.5056 10.8569 29.9423C11.0436 29.9158 11.233 29.9651 11.3829 30.0792C11.8901 30.46 12.4191 30.8109 12.9669 31.1302C13.377 31.3752 13.86 31.6412 14.407 31.9082C15.1084 32.2531 15.8297 32.5559 16.567 32.8153C17.028 32.9742 17.51 33.1252 18.007 33.2473C18.9495 33.4917 19.9146 33.6389 20.887 33.6863C21.074 33.6932 21.261 33.7003 21.4561 33.7003H21.756C21.95 33.7003 22.1379 33.6934 22.325 33.6863C23.2975 33.6389 24.2626 33.4917 25.205 33.2473C25.705 33.1252 26.184 32.9733 26.645 32.8153C27.3823 32.5559 28.1035 32.2529 28.8051 31.9082C29.353 31.6412 29.835 31.3752 30.245 31.1302C30.793 30.8109 31.3218 30.46 31.829 30.0792C31.979 29.9651 32.1685 29.9158 32.355 29.9423Z" fill="#E6E7E8"/>
      <path fill-rule="evenodd" clip-rule="evenodd" d="M22.3229 30.8062V38.8643C22.0779 38.8793 21.8398 38.8862 21.6029 38.8862C21.3658 38.8862 21.1278 38.8793 20.8828 38.8643V30.8062C21.0698 30.8132 21.2578 30.8202 21.4518 30.8202H21.7518C21.9489 30.8213 22.1359 30.8132 22.3229 30.8062Z" fill="#E6E7E8"/>
      <path fill-rule="evenodd" clip-rule="evenodd" d="M18.0029 30.3892V38.2241C18.0055 38.2927 17.9933 38.3608 17.967 38.4242C17.6219 38.3302 17.283 38.2302 16.944 38.1072C16.814 38.0642 16.6851 38.0132 16.562 37.9631V30.1932C16.563 30.1221 16.5752 30.0515 16.598 29.9841C17.052 30.1372 17.521 30.2742 18.0029 30.3892Z" fill="#E6E7E8"/>
      <path fill-rule="evenodd" clip-rule="evenodd" d="M14.4021 29.1003V36.1864C14.4045 36.3529 14.3453 36.5145 14.2361 36.6403C13.7697 36.2969 13.3424 35.9032 12.962 35.4664V28.7473C12.9596 28.6254 12.9922 28.5052 13.056 28.4014C13.4561 28.6313 13.9131 28.8693 14.4031 29.1013L14.4021 29.1003Z" fill="#E6E7E8"/>
      <path fill-rule="evenodd" clip-rule="evenodd" d="M30.2449 28.7472V35.4652C29.8645 35.902 29.4373 36.2957 28.9708 36.6392C28.8616 36.5134 28.8025 36.3518 28.8048 36.1853L28.8049 29.0992C29.2949 28.8691 29.7479 28.6312 30.1519 28.3992C30.2157 28.5032 30.2484 28.6233 30.2458 28.7452L30.2449 28.7472Z" fill="#E6E7E8"/>
      <path fill-rule="evenodd" clip-rule="evenodd" d="M26.641 30.1942V37.9642C26.5181 38.0142 26.389 38.0642 26.259 38.1082C25.92 38.2302 25.582 38.3312 25.2361 38.4252C25.2098 38.3618 25.1975 38.2937 25.2 38.2252V30.3901C25.682 30.2751 26.15 30.1382 26.6 29.9902C26.6228 30.0576 26.635 30.1282 26.636 30.1992L26.641 30.1942Z" fill="#E6E7E8"/>
      <path fill-rule="evenodd" clip-rule="evenodd" d="M8.99805 29.2502C8.76099 29.2502 8.53931 29.1331 8.40601 28.937C8.27271 28.741 8.245 28.4917 8.33203 28.2712C8.42004 28.0553 9.30505 26.1343 13.2321 25.6663C13.627 25.6194 13.9851 25.9014 14.032 26.2963C14.079 26.6912 13.7969 27.0493 13.402 27.0963C10.3311 27.4633 9.66309 28.8153 9.65796 28.8282C9.53735 29.0841 9.28088 29.2482 8.99805 29.2504V29.2502Z" fill="#E57E25"/>
      <path fill-rule="evenodd" clip-rule="evenodd" d="M34.205 29.2653C33.9182 29.2656 33.6587 29.0959 33.5439 28.8333C33.517 28.7803 32.824 27.4652 29.799 27.1052C29.4041 27.0583 29.1221 26.7001 29.1689 26.3052C29.2159 25.9104 29.5741 25.6283 29.969 25.6753C33.8989 26.1443 34.7839 28.0632 34.869 28.2803C34.9587 28.5022 34.9324 28.7544 34.7983 28.9529C34.6644 29.1515 34.4404 29.2704 34.2009 29.2703L34.205 29.2653Z" fill="#E57E25"/>
      <path fill-rule="evenodd" clip-rule="evenodd" d="M25.9601 7.09326C23.113 6.2771 20.0941 6.2771 17.2471 7.09326L21.0061 1.06531C21.1287 0.849365 21.3578 0.716064 21.6061 0.716064C21.8544 0.716064 22.0835 0.849365 22.2061 1.06531L25.9601 7.09326Z" fill="#B49ACA"/>
   </symbol>


   <!-- Top-right arrow -->
   <symbol viewbox="0 0 18 20" id="tr-arrow">
      <path fill-rule="evenodd" clip-rule="evenodd" d="M1.54456 15.5681L12.4515 3.021L12.8509 11.8035C12.872 12.2629 13.2618 12.6189 13.7216 12.5977C14.1814 12.5769 14.5372 12.187 14.5164 11.7273L14.0595 1.69727C14.029 1.25293 13.8217 0.839111 13.484 0.548584C13.1463 0.258057 12.7062 0.114746 12.2623 0.150879L2.28607 1.09302C1.8277 1.13623 1.49121 1.54297 1.53436 2.00098C1.57764 2.45947 1.98419 2.79614 2.44257 2.75269L11.2125 1.90576L0.286499 14.4746C-0.0155029 14.822 0.0213013 15.3484 0.368713 15.6504C0.716126 15.9524 1.24255 15.9155 1.54456 15.5681Z" fill="#326DF9"/>
   </symbol>
   <!-- Bottom arrow -->
   <symbol viewbox="0 0 11 7" id="b-arrow">
      <path fill-rule="evenodd" clip-rule="evenodd" d="M5.49805 4.37289L1.49304 0.540894C1.26007 0.322952 0.89801 0.322952 0.665039 0.540894L0.314087 0.8769C0.204956 0.979691 0.143066 1.12297 0.143066 1.2729C0.143066 1.42282 0.204956 1.5661 0.314087 1.6689L5.08209 6.2319C5.31622 6.44975 5.67889 6.44975 5.91309 6.2319L10.6771 1.6739C10.7862 1.57111 10.8481 1.42783 10.8481 1.2779C10.8481 1.12798 10.7862 0.984695 10.6771 0.881897L10.326 0.545898C10.0933 0.327454 9.73083 0.327454 9.49805 0.545898L5.49805 4.37289Z" fill="#707070"/>
   </symbol>
   <!-- Check-icon -->
   <symbol viewbox="0 0 27 20" id="check-icon">
      <path fill-rule="evenodd" clip-rule="evenodd" d="M24.4041 1.20044C23.9277 0.724243 23.1555 0.724243 22.6791 1.20044L8.06909 15.8125L2.45105 10.1954C1.97211 9.73511 1.21283 9.74268 0.743042 10.2124C0.273315 10.6821 0.265747 11.4414 0.726074 11.9204L7.20508 18.3994C7.68146 18.8757 8.45367 18.8757 8.93005 18.3994L24.4041 2.92542C24.8803 2.4491 24.8803 1.67688 24.4041 1.20044Z" fill="#E3E3E3"/>
   </symbol>


   <!-- twitter source -->
   <symbol viewBox="0 0 51 50" id="twitter-source">
      <circle cx="25.4194" cy="25" r="25" fill="#61BCFE"/>
      <path fill-rule="evenodd" clip-rule="evenodd" d="M36.8595 18.886C38.0245 18.053 39.0279 17.0147 39.8205 15.822H39.8205C38.7377 16.2939 37.5926 16.6078 36.4205 16.754C37.6573 16.0212 38.5824 14.8602 39.0205 13.491C37.863 14.1771 36.5968 14.6603 35.2765 14.92C33.6223 13.1434 31.0488 12.5613 28.791 13.4531C26.5333 14.3448 25.0522 16.5285 25.0585 18.956C25.054 19.408 25.1 19.8591 25.1955 20.301C20.4451 20.0678 16.0189 17.822 13.0255 14.126C11.4451 16.8217 12.2406 20.282 14.8395 22.017C13.9051 21.9917 12.9904 21.7424 12.1725 21.29V21.355C12.1767 24.1644 14.1513 26.5857 16.9025 27.155C16.3974 27.2882 15.8768 27.3535 15.3545 27.3489C14.9797 27.3559 14.6052 27.3224 14.2375 27.249C15.0197 29.6497 17.2294 31.2973 19.7535 31.3619C17.6634 32.9964 15.0858 33.8833 12.4325 33.881C11.9606 33.8842 11.489 33.8574 11.0205 33.801C13.7203 35.5402 16.866 36.4602 20.0775 36.45C24.6757 36.4819 29.0833 34.6152 32.26 31.2906C35.4366 27.9659 37.1007 23.4779 36.8595 18.886Z" fill="white"/>
   </symbol>
   <!-- youtube source -->
   <symbol viewBox="0 0 51 50" id="youtube-source">
      <circle cx="25.4194" cy="25" r="25" fill="#FC3C3A"/>
      <path fill-rule="evenodd" clip-rule="evenodd" d="M30.0504 24.2902L23.3503 20.1021C23.0922 19.9408 22.7667 19.9323 22.5004 20.0798C22.234 20.2273 22.0686 20.5077 22.0684 20.8121V29.1881C22.0688 29.4923 22.2341 29.7723 22.5001 29.9198C22.7661 30.0673 23.0912 30.059 23.3494 29.8982L30.0493 25.7101C30.2943 25.557 30.443 25.2885 30.443 24.9996C30.443 24.7108 30.2943 24.4423 30.0493 24.2891L30.0504 24.2902ZM23.7433 27.6771V22.3241L28.0264 25.0011L23.7433 27.6771Z" fill="white"/>
      <path fill-rule="evenodd" clip-rule="evenodd" d="M35.5245 14.1121H15.3125C13.0007 14.1148 11.1273 15.9882 11.1245 18.3V31.7001C11.1271 34.0117 13.0005 35.8852 15.3123 35.8881H35.5245C37.8364 35.8853 39.7098 34.0119 39.7125 31.7001V18.3C39.7098 15.9884 37.8365 14.1149 35.5247 14.1121H35.5245ZM38.0375 31.701C38.0348 33.0875 36.9109 34.2104 35.5245 34.212H15.3125C13.9253 34.2104 12.8011 33.0862 12.7995 31.699V18.2991C12.8011 16.912 13.9252 15.7878 15.3124 15.7861H35.5245C36.9117 15.7877 38.0359 16.9119 38.0375 18.2991V31.701Z" fill="white"/>
   </symbol>
   <!-- wordpress source -->
   <symbol viewBox="0 0 51 50" id="wordpress-source">
      <circle cx="25.4194" cy="25" r="25" fill="white"/>
      <path fill-rule="evenodd" clip-rule="evenodd" d="M19.6595 19.473H18.1875L22.1985 30.811L24.4446 24.394L22.7025 19.473H21.1505V18.393H28.0245V19.473H26.4146L30.4255 30.811L31.8676 26.691C33.7585 21.412 30.3175 19.768 30.3175 18.591C30.3175 17.413 31.2725 16.458 32.4506 16.458C32.5145 16.458 32.5765 16.458 32.6365 16.467C30.2484 14.2131 26.988 13.127 23.7253 13.4984C20.4628 13.8698 17.5299 15.661 15.7095 18.394H19.6595V19.473Z" fill="#00769D"/>
      <path fill-rule="evenodd" clip-rule="evenodd" d="M13.8413 24.5668C13.84 28.691 16.1174 32.4796 19.7614 34.4133L14.7323 20.1948C14.1427 21.577 13.8396 23.0643 13.8413 24.5669V24.5668Z" fill="#00769D"/>
      <path fill-rule="evenodd" clip-rule="evenodd" d="M34.6875 19.075C34.8429 20.0916 34.7977 21.1287 34.5546 22.1279H34.5985L34.4296 22.6099C34.3258 22.9673 34.203 23.3188 34.0615 23.663L30.2266 34.408C32.8795 32.9941 34.8494 30.569 35.6893 27.6824C36.5292 24.7958 36.1678 21.6924 34.6875 19.0759V19.075Z" fill="#00769D"/>
      <path fill-rule="evenodd" clip-rule="evenodd" d="M21.5503 35.1719C23.7341 35.8765 26.0817 35.8932 28.2754 35.2199L25.0154 26.0039L21.5503 35.1719Z" fill="#00769D"/>
      <path fill-rule="evenodd" clip-rule="evenodd" d="M34.4071 15.146C29.2043 9.94318 20.7689 9.94318 15.5662 15.146C10.3633 20.3488 10.3633 28.7842 15.5662 33.987C20.7689 39.1898 29.2043 39.1898 34.4071 33.9869C39.61 28.7842 39.61 20.3488 34.4071 15.146ZM24.9872 36.946C19.9791 36.9468 15.4639 33.9305 13.547 29.3039C11.6301 24.6772 12.6892 19.3515 16.2305 15.8103C19.7716 12.2691 25.0974 11.21 29.7241 13.1268C34.3507 15.0436 37.3669 19.559 37.3661 24.567C37.3549 31.3984 31.8196 36.9341 24.9875 36.946H24.9872Z" fill="#00769D"/>
   </symbol>
   <!-- substack source -->
   <symbol viewBox="0 0 51 50" id="substack-source">
      <circle cx="25.4194" cy="25" r="25" fill="#FF671B"/>
      <path fill-rule="evenodd" clip-rule="evenodd" d="M25.4196 29C25.2148 29 25.0189 28.9162 24.8776 28.768L19.6276 23.268C19.4203 23.051 19.3623 22.7312 19.4803 22.4552C19.5983 22.1792 19.8694 22.0001 20.1696 22H22.9196V16.25C22.9207 15.5601 23.4796 15.0011 24.1695 15H26.6696C27.3595 15.0011 27.9185 15.5601 27.9196 16.25V22H30.6696C30.9697 22.0001 31.2408 22.1792 31.3588 22.4552C31.4768 22.7312 31.4189 23.051 31.2115 23.268L25.9615 28.768C25.8202 28.9162 25.6243 29 25.4196 29Z" fill="white"/>
      <path fill-rule="evenodd" clip-rule="evenodd" d="M35.6694 35H15.1694C14.2034 34.9989 13.4205 34.2161 13.4194 33.25V32.75C13.4205 31.7841 14.2033 31.0012 15.1693 31H35.6694C36.6355 31.0011 37.4183 31.7839 37.4194 32.75V33.25C37.4184 34.2159 36.6356 34.9988 35.6695 35H35.6694Z" fill="white"/>
   </symbol>
   <!-- medium source -->
   <symbol viewBox="0 0 51 50" id="medium-source">
      <circle cx="25.4194" cy="25" r="25" fill="#14100D"/>
      <path fill-rule="evenodd" clip-rule="evenodd" d="M35.5045 18.233L37.4194 16.4V16H30.7855L26.0574 27.768L20.6784 16H13.7194V16.4L15.9594 19.094C16.1769 19.2934 16.288 19.5834 16.2595 19.877V30.46C16.3265 30.8416 16.2064 31.2321 15.9365 31.51L13.4194 34.564V34.964H20.5645V34.564L18.0444 31.51C17.771 31.2335 17.6426 30.845 17.6974 30.46V21.306L23.9694 34.965H24.6984L30.0914 21.306V32.187C30.0914 32.474 30.0914 32.533 29.9034 32.721L27.9634 34.6V35H37.3754V34.6L35.5054 32.769C35.3404 32.6446 35.258 32.439 35.2914 32.235V18.767C35.2573 18.5632 35.3394 18.3574 35.5045 18.233Z" fill="white"/>
   </symbol>
   <!-- spotify source -->
   <symbol viewBox="0 0 51 50" id="spotify-source">
      <circle cx="25.4194" cy="25" r="25" fill="#1BBA54"/>
      <path fill-rule="evenodd" clip-rule="evenodd" d="M34.7404 28.5879C29.3404 25.0289 22.5454 24.1649 14.5534 26.0269C13.8951 26.1978 13.493 26.8623 13.6471 27.5248C13.8012 28.1873 14.4553 28.6061 15.1214 28.4689C27.9794 25.4799 32.7524 30.8899 34.0494 30.8899C34.6024 30.8881 35.0891 30.5247 35.2481 29.995C35.4071 29.4653 35.201 28.894 34.7404 28.5879Z" fill="white"/>
      <path fill-rule="evenodd" clip-rule="evenodd" d="M13.9862 22.199C21.1762 20.499 29.3382 21.4869 35.2862 24.777C35.8918 25.1119 36.6542 24.8927 36.9894 24.2872C37.3245 23.6819 37.1055 22.9193 36.5002 22.584C30.0262 19.0031 21.1802 17.923 13.4122 19.76C12.7387 19.9193 12.3219 20.5945 12.4812 21.2679C12.6405 21.9415 13.3157 22.3583 13.9892 22.199H13.9862Z" fill="white"/>
      <path fill-rule="evenodd" clip-rule="evenodd" d="M13.0374 15.6759C20.6104 13.359 31.2374 14.63 37.2244 18.568C37.8011 18.9095 38.5444 18.7372 38.912 18.1768C39.2796 17.6162 39.1414 16.8658 38.5984 16.4729C31.9454 12.0979 20.6414 10.726 12.2984 13.2729C11.6356 13.4756 11.2627 14.1772 11.4654 14.84C11.6681 15.5027 12.3696 15.8756 13.0324 15.673L13.0374 15.6759Z" fill="white"/>
      <circle cx="23.2744" cy="35" r="4" fill="white"/>
   </symbol>
   <!-- anchor source -->
   <symbol viewBox="0 0 51 50" id="anchor-source">
      <circle cx="25.4194" cy="25" r="25" fill="#8940FC"/>
      <path fill-rule="evenodd" clip-rule="evenodd" d="M37.9564 28.231L35.5864 25.387C35.4937 25.283 35.3608 25.2234 35.2214 25.2234C35.082 25.2234 34.9492 25.283 34.8564 25.387L32.4865 28.231C32.3689 28.3724 32.3438 28.5691 32.4219 28.7356C32.5001 28.902 32.6675 29.0082 32.8514 29.0081H33.6054C32.7684 31.9882 30.2339 34.1815 27.1644 34.582V22.373H31.4304C31.6922 22.373 31.9044 22.1608 31.9044 21.899V20C31.9044 19.7382 31.6922 19.526 31.4304 19.526H27.1644V18.307C28.847 17.6263 29.8113 15.849 29.4646 14.0674C29.1179 12.2858 27.5574 10.9998 25.7424 10.9998C23.9274 10.9998 22.3669 12.2858 22.0203 14.0674C21.6736 15.849 22.6379 17.6263 24.3204 18.307V19.53H20.0554C19.7952 19.53 19.5836 19.7397 19.5814 20V21.9C19.5814 22.1617 19.7936 22.374 20.0554 22.374H24.3214V34.583C21.252 34.1825 18.7175 31.9891 17.8804 29.009H18.6354C18.8193 29.0092 18.9868 28.903 19.0649 28.7366C19.1431 28.5701 19.118 28.3734 19.0004 28.2321L16.6304 25.3879C16.5377 25.2839 16.4048 25.2244 16.2654 25.2244C16.126 25.2244 15.9932 25.2839 15.9005 25.3879L13.5294 28.231C13.4119 28.3724 13.3867 28.5691 13.4649 28.7356C13.5431 28.902 13.7105 29.0082 13.8944 29.0081H14.9514C15.8419 33.5978 19.6641 37.0432 24.3214 37.454V38.0131C24.3225 38.1384 24.3715 38.2585 24.4584 38.349L25.4064 39.297C25.5934 39.4801 25.8925 39.4801 26.0794 39.297L27.0274 38.349C27.1145 38.2587 27.1635 38.1384 27.1644 38.0131V37.454C31.8217 37.0432 35.644 33.5978 36.5344 29.0081H37.5914C37.7753 29.0082 37.9427 28.902 38.0209 28.7356C38.0991 28.5691 38.074 28.3724 37.9564 28.231ZM25.7424 16.212C25.1673 16.212 24.6487 15.8656 24.4286 15.3342C24.2086 14.8029 24.3302 14.1912 24.7369 13.7845C25.1436 13.3778 25.7552 13.2561 26.2866 13.4762C26.818 13.6963 27.1644 14.2148 27.1644 14.79C27.1644 15.5753 26.5278 16.212 25.7424 16.212Z" fill="white"/>
   </symbol>
   <!-- apple podcasts source -->
   <symbol viewBox="0 0 51 50" id="podcasts-source">
      <circle cx="25.4194" cy="25" r="25" fill="#8940FC"/>
      <path fill-rule="evenodd" clip-rule="evenodd" d="M39.2096 24.4761C39.2146 18.0466 34.8086 12.4537 28.5571 10.9536C22.3055 9.45337 15.8412 12.4376 12.9281 18.1687C10.0149 23.8998 11.4137 30.881 16.3099 35.0474L14.1267 39.781L25.3147 38.3811L36.5027 39.781L34.3186 35.0491C37.4261 32.4167 39.2156 28.5486 39.2097 24.4761H39.2096ZM24.1566 36.1901L17.9757 36.962L21.0667 30.2621H24.1566V36.1901ZM24.1566 27.9491H22.1356L24.0957 23.702C24.8873 23.9614 25.741 23.9614 26.5326 23.702L28.4927 27.9491H24.1566ZM23.5776 19.844C23.5792 19.0309 24.1447 18.3276 24.9386 18.1515C25.7324 17.9755 26.5422 18.3737 26.8873 19.11C27.2325 19.8462 27.0208 20.7234 26.3776 21.2211C25.7455 21.6824 24.8878 21.6823 24.2556 21.2211C23.8284 20.892 23.5779 20.3833 23.5776 19.844ZM26.4727 36.1901V30.265H29.5616L32.6527 36.9651L26.4727 36.1901ZM33.3047 32.847L31.1046 28.0811V27.9501H31.0447L28.4746 22.3811C29.8051 20.7246 29.6305 18.322 28.0748 16.8752C26.5192 15.4283 24.1102 15.4283 22.5544 16.8752C20.9988 18.322 20.8243 20.7246 22.1547 22.3811L19.5857 27.948H19.5256V28.0811L17.3257 32.847C13.899 29.5809 12.8057 24.5579 14.5647 20.163C16.3237 15.7681 20.5808 12.8866 25.3147 12.8866C30.0485 12.8866 34.3055 15.7682 36.0646 20.163C37.8236 24.5579 36.7302 29.5809 33.3036 32.847H33.3047Z" fill="white"/>
   </symbol>
   <!-- instagram source -->
   <symbol viewBox="0 0 51 50" id="instagram-source">
      <circle cx="25.9194" cy="25.5" r="25.5" fill="#EF72AD"/>
      <path fill-rule="evenodd" clip-rule="evenodd" d="M26.1955 0C25.0713 0 23.9483 0.0727539 22.8335 0.218018C35.6608 1.90466 45.2509 12.8383 45.2509 25.776C45.2509 38.7137 35.6608 49.6473 22.8335 51.334C32.3631 52.587 41.7983 48.4341 47.3106 40.5603C52.8229 32.6864 53.4966 22.3997 49.0584 13.8741C44.6201 5.34863 35.8071 0.000488281 26.1955 0Z" fill="#EE539E"/>
      <path fill-rule="evenodd" clip-rule="evenodd" d="M34.0976 12.0959H18.2896C15.103 12.1014 12.5211 14.6832 12.5156 17.8699V33.6749C12.5197 36.8644 15.1042 39.4484 18.2931 39.4519H34.0976C37.2866 39.448 39.8708 36.8639 39.8746 33.6749V17.8699C39.869 14.6819 37.2852 12.0996 34.0974 12.0959H34.0976ZM38.4836 33.6779C38.4809 36.0991 36.5188 38.0612 34.0976 38.0638H18.2896C15.8685 38.0612 13.9064 36.0991 13.9036 33.6779V17.8699C13.908 15.45 15.8695 13.4897 18.2895 13.4869H34.0946C36.5158 13.4896 38.4779 15.4517 38.4807 17.8729V33.6779H38.4836Z" fill="white"/>
      <path fill-rule="evenodd" clip-rule="evenodd" d="M26.1958 18.5879C22.226 18.5879 19.0078 21.806 19.0078 25.7759C19.0078 29.7457 22.226 32.9639 26.1958 32.9639C30.1656 32.9639 33.3838 29.7457 33.3838 25.7759C33.3771 21.8086 30.1627 18.5944 26.1956 18.5879H26.1958ZM26.1958 31.5719C22.9926 31.5719 20.3958 28.9751 20.3958 25.7719C20.3958 22.5686 22.9926 19.9719 26.1958 19.9719C29.399 19.9719 31.9958 22.5686 31.9958 25.7719C31.9958 28.9751 29.399 31.5719 26.1958 31.5719Z" fill="white"/>
      <circle cx="33.6148" cy="17.429" r="1.855" fill="white"/>
   </symbol>
   <!-- linkedIn source -->
   <symbol viewBox="0 0 51 50" id="linkedin-source">
      <circle cx="23.9194" cy="23.5" r="23.5" fill="#007AB9"/>
      <path fill-rule="evenodd" clip-rule="evenodd" d="M37.9603 25.391V35.0801H32.3433V26.04C32.3433 23.77 31.5323 22.22 29.4983 22.22C28.2011 22.2274 27.0483 23.0485 26.6173 24.272C26.4731 24.7134 26.4102 25.1772 26.4313 25.641V35.077H20.8133C20.8133 35.077 20.8883 19.7681 20.8133 18.183H26.4313V20.577C26.4203 20.5961 26.4043 20.614 26.3943 20.6321H26.4313V20.577C27.4672 18.7783 29.4164 17.7039 31.4903 17.788C35.1903 17.788 37.9563 20.203 37.9563 25.3881L37.9603 25.391ZM14.9373 10.041C13.8447 9.94739 12.7913 10.4723 12.2082 11.4011C11.6251 12.33 11.6102 13.5068 12.1696 14.4502C12.7289 15.3934 13.7686 15.9449 14.8633 15.879H14.8993C15.9962 15.9719 17.0524 15.4418 17.6334 14.5068C18.2144 13.5719 18.2219 12.39 17.6528 11.4478C17.0837 10.5055 16.0342 9.96204 14.9363 10.041H14.9373ZM12.0903 35.079H17.7053V18.1851H12.0903V35.079Z" fill="#F1F2F2"/>
   </symbol>
   <!-- facebook source -->
   <symbol viewBox="0 0 51 50" id="facebook-source">
      <circle cx="25.4194" cy="25" r="25" fill="#2D63EF"/>
      <path d="M21.9775 38V25.1641H19.6011V21.6221H21.9775V20.3203C21.9775 18.4535 22.5275 17.0054 23.6274 15.9761C24.7274 14.9468 26.2713 14.4321 28.2593 14.4321C28.9858 14.4321 29.783 14.5381 30.6509 14.75L30.666 18.5039C30.3532 18.4131 29.9344 18.3677 29.4097 18.3677C27.8657 18.3677 27.0938 19.0337 27.0938 20.3657V21.6221H30.2876V25.1641H27.0938V38H21.9775Z" fill="white"/>
   </symbol>


   <!-- Facebook Social-icon -->
   <symbol viewbox="0 0 36 35" id="facebook-social">
      <path fill-rule="evenodd" clip-rule="evenodd" d="M18.039 0.5C8.96814 0.493164 1.42709 7.48309 0.746796 16.5284C0.0664673 25.5737 6.47717 33.613 15.447 34.963L15.447 22.434H11.157V17.876H15.448V14.843C15.448 9.82098 17.894 7.61798 22.068 7.61798C23.257 7.60205 24.4456 7.67419 25.624 7.83398L25.624 11.813H22.777C21.006 11.813 20.387 13.492 20.387 15.386V17.877H25.579L24.879 22.434H20.386V35C29.4155 33.7645 35.9452 25.7464 35.3266 16.6538C34.708 7.56116 27.1526 0.501282 18.039 0.5H18.039Z" fill="#4267B2"/>
   </symbol>
   <!-- Google Social-icon -->
   <symbol viewbox="0 0 35 35" id="google-social">
      <path fill-rule="evenodd" clip-rule="evenodd" d="M34.22 17.9908C34.2209 16.8284 34.1207 15.666 33.9204 14.5189L17.798 14.5168V21.1009H27.033C26.6514 23.2282 25.4166 25.1069 23.6149 26.3009L23.615 30.5729H29.125C32.5281 27.2894 34.3797 22.717 34.22 17.9908Z" fill="#4285F4"/>
      <path fill-rule="evenodd" clip-rule="evenodd" d="M17.798 34.696C21.9634 34.8129 26.0166 33.3365 29.131 30.568L23.619 26.297C20.9308 28.0165 17.6006 28.4025 14.5902 27.3436C11.5799 26.2847 9.22479 23.8988 8.20502 20.875H2.51904V25.275C5.42194 31.0508 11.3337 34.696 17.798 34.696Z" fill="#34A853"/>
      <path fill-rule="evenodd" clip-rule="evenodd" d="M8.198 20.8748C7.48187 18.7516 7.48187 16.452 8.198 14.3288V9.9248H2.51898C0.0940552 14.7556 0.0940552 20.4481 2.51898 25.2788L8.198 20.8748Z" fill="#FBBC04"/>
      <path fill-rule="evenodd" clip-rule="evenodd" d="M17.798 7.26697C20.236 7.22754 22.5917 8.14807 24.357 9.82996L29.238 4.94897C26.1423 2.04431 22.0427 0.450378 17.798 0.500916C11.3329 0.499878 5.42029 4.1463 2.51904 9.92395L8.198 14.3239C9.55444 10.1564 13.4156 7.31647 17.798 7.26294V7.26697Z" fill="#EA4335"/>
   </symbol>
   <!-- Apple Social-icon -->
   <symbol viewbox="0 0 34 40" id="apple-social">
      <path fill-rule="evenodd" clip-rule="evenodd" d="M33.121 31.138C32.5474 32.4733 31.8391 33.7465 31.007 34.938C30.2238 36.1323 29.3106 37.2361 28.284 38.229C27.3508 39.1618 26.1022 39.7116 24.784 39.77C23.6673 39.721 22.5704 39.4589 21.5521 38.998C20.4526 38.5191 19.2708 38.2579 18.072 38.229C16.841 38.2533 15.6263 38.5143 14.494 38.998C13.5158 39.4395 12.4708 39.7142 11.402 39.811C10.0433 39.7946 8.75043 39.223 7.82404 38.229C6.75275 37.201 5.79779 36.0585 4.97601 34.822C3.69269 32.9815 2.67877 30.9672 1.96503 28.84C1.15057 26.55 0.723083 24.1404 0.700012 21.71C0.635559 19.3262 1.22711 16.9705 2.4101 14.9C3.27167 13.4044 4.50482 12.1564 5.99005 11.277C7.45416 10.4009 9.12482 9.9295 10.831 9.91101C12.1193 9.9873 13.3853 10.2819 14.575 10.782C15.5233 11.1996 16.5215 11.493 17.545 11.655C18.6734 11.4196 19.7763 11.075 20.8381 10.626C22.2574 10.049 23.7827 9.77802 25.314 9.83099C28.2706 9.90753 31.0228 11.3567 32.759 13.751C29.9877 15.2238 28.2872 18.1367 28.367 21.274C28.3373 23.6525 29.3296 25.9294 31.092 27.527C31.8829 28.2837 32.8058 28.889 33.815 29.313C33.5964 29.9464 33.3651 30.5537 33.121 31.135V31.138ZM25.535 1.28699C25.5089 3.32031 24.7448 5.2749 23.3851 6.78693C21.657 8.80701 19.567 9.974 17.301 9.78699C17.2706 9.53986 17.2552 9.29102 17.2551 9.04199C17.3237 6.97534 18.1334 5.00232 19.5359 3.48303C20.3144 2.6106 21.2592 1.9024 22.315 1.40002C23.3035 0.889587 24.3847 0.583496 25.494 0.5C25.5222 0.761047 25.5358 1.02344 25.535 1.28601V1.28699Z" fill="white"/>
   </symbol>


   <!-- Email Icon -->
   <symbol viewbox="0 0 32 31" id="email-icon">
      <path fill-rule="evenodd" clip-rule="evenodd" d="M16.004 22.5119C14.0082 22.5335 12.0881 21.7503 10.6768 20.3391C9.26556 18.9278 8.48236 17.0076 8.50397 15.0119C8.4826 13.0163 9.26593 11.0962 10.6771 9.68503C12.0883 8.27386 14.0084 7.49054 16.004 7.5119C17.9997 7.49026 19.9199 8.2735 21.3311 9.68472C22.7424 11.096 23.5256 13.0162 23.504 15.0119C23.5256 17.0076 22.7424 18.9279 21.3311 20.3391C19.9199 21.7503 17.9996 22.5335 16.004 22.5119ZM16.004 10.5119C14.8022 10.4843 13.6415 10.9495 12.7916 11.7995C11.9416 12.6494 11.4764 13.8102 11.504 15.0119C11.4764 16.2136 11.9416 17.3744 12.7916 18.2243C13.6415 19.0743 14.8022 19.5396 16.004 19.5119C17.2057 19.5396 18.3664 19.0743 19.2164 18.2243C20.0663 17.3744 20.5316 16.2136 20.504 15.0119C20.5316 13.8102 20.0663 12.6494 19.2164 11.7995C18.3664 10.9495 17.2057 10.4843 16.004 10.5119Z" fill="white"/>
      <path fill-rule="evenodd" clip-rule="evenodd" d="M23.4321 30.31H15.855C7.48517 30.31 0.700012 23.5249 0.700012 15.155C0.700012 6.78513 7.48517 0 15.855 0C24.2249 0 31.0101 6.78513 31.0101 15.155V17.428C31.0109 19.323 30.0003 21.0749 28.3588 22.023C26.7175 22.971 24.6949 22.9711 23.0534 22.0232C21.412 21.0752 20.4012 19.3233 20.402 17.4278V15.155H23.433V17.428C23.4337 18.6828 24.4511 19.6997 25.706 19.6998C26.9609 19.6998 27.9783 18.6829 27.9791 17.428V15.155C27.9791 8.45911 22.551 3.03101 15.855 3.03101C9.15912 3.03101 3.73102 8.45911 3.73102 15.155C3.73102 21.8509 9.15912 27.279 15.855 27.279H23.4321V30.31Z" fill="white"/>
   </symbol>
   <!-- Eye Icon -->
   <symbol viewbox="0 0 34 25" id="eye-icon">
      <path fill-rule="evenodd" clip-rule="evenodd" d="M17.2 24.5121C14.5369 24.5304 11.9111 23.886 9.55902 22.6371C7.62 21.5832 5.88885 20.1855 4.45001 18.5121C2.88513 16.727 1.61884 14.7009 0.700012 12.5121C1.62097 10.3243 2.88708 8.29858 4.45001 6.51208C5.88885 4.83868 7.62 3.44098 9.55902 2.38708C11.9111 1.13812 14.5369 0.493774 17.2 0.512085C19.8631 0.493774 22.4889 1.13812 24.841 2.38708C26.78 3.44098 28.5112 4.83868 29.95 6.51208C31.5149 8.29718 32.7812 10.3232 33.7 12.5121C32.7791 14.6998 31.5129 16.7256 29.95 18.5121C28.5112 20.1855 26.78 21.5832 24.841 22.6371C22.4889 23.886 19.8631 24.5304 17.2 24.5121ZM17.2 3.51208C9.37299 3.51208 5.35303 9.81207 3.987 12.5171C5.33801 15.2211 9.33099 21.5121 17.2 21.5121C25.026 21.5121 29.048 15.2121 30.414 12.5061C29.064 9.8031 25.073 3.51208 17.2 3.51208ZM17.2 18.5121C13.8863 18.5121 11.2 15.8258 11.2 12.5121C11.2 9.19836 13.8863 6.51208 17.2 6.51208C20.5137 6.51208 23.2 9.19836 23.2 12.5121C23.1968 15.8243 20.5125 18.5087 17.2001 18.5121H17.2ZM17.2 9.51208C15.5432 9.51208 14.2 10.8552 14.2 12.5121C14.2 14.1689 15.5432 15.5121 17.2 15.5121C18.8569 15.5121 20.2 14.1689 20.2 12.5121C20.2 10.8552 18.8569 9.51208 17.2 9.51208Z" fill="white"/>
   </symbol>
   <!-- User Icon -->
   <symbol viewbox="0 0 27 32" id="user-icon">
      <path fill-rule="evenodd" clip-rule="evenodd" d="M13.152 15.6C15.0935 15.6267 16.9604 14.8531 18.314 13.461C19.7059 12.1076 20.4795 10.2411 20.453 8.29996C20.4797 6.35849 19.7061 4.49161 18.314 3.13797C15.4633 0.287659 10.8417 0.287659 7.99103 3.13797C6.59888 4.49152 5.82526 6.35846 5.85199 8.29996C5.82526 10.2415 6.59888 12.1085 7.99103 13.462C9.34467 14.8533 11.2111 15.6265 13.152 15.6ZM9.24701 4.39496C10.2827 3.35886 11.6876 2.77676 13.1525 2.77676C14.6174 2.77676 16.0223 3.35886 17.058 4.39496C18.1178 5.4144 18.7042 6.82974 18.676 8.29996C18.7045 9.77051 18.118 11.1863 17.058 12.206C16.0224 13.2421 14.6175 13.8242 13.1525 13.8242C11.6876 13.8242 10.2827 13.2421 9.24701 12.206C8.18652 11.1866 7.59967 9.77072 7.62799 8.29996C7.59967 6.82922 8.18652 5.41339 9.24701 4.39398V4.39496Z" fill="white"/>
      <path d="M18.314 13.461L18.0699 13.2099L18.0631 13.217L18.314 13.461ZM20.453 8.29996L20.1029 8.29515L20.103 8.30473L20.453 8.29996ZM18.314 3.13797L18.0665 3.3855L18.07 3.38889L18.314 3.13797ZM7.99103 3.13797L8.23504 3.38894L8.2385 3.38547L7.99103 3.13797ZM5.85199 8.29996L6.20209 8.30478L6.20196 8.29514L5.85199 8.29996ZM7.99103 13.462L8.24198 13.2178L8.23501 13.2111L7.99103 13.462ZM9.24701 4.39496H8.89701V5.2402L9.49455 4.64239L9.24701 4.39496ZM17.058 4.39496L16.8105 4.64245L16.8154 4.6472L17.058 4.39496ZM18.676 8.29996L18.3258 8.29324L18.3261 8.30674L18.676 8.29996ZM17.058 12.206L16.8154 11.9537L16.8105 11.9585L17.058 12.206ZM9.24701 12.206L9.4946 11.9585L9.48956 11.9536L9.24701 12.206ZM7.62799 8.29996L7.97819 8.3067L7.97793 8.29322L7.62799 8.29996ZM9.24701 4.39398H9.59701V3.57206L9.00446 4.14166L9.24701 4.39398ZM13.1472 15.9499C15.1849 15.978 17.1443 15.1661 18.565 13.705L18.0631 13.217C16.7766 14.5402 15.0021 15.2754 13.1569 15.25L13.1472 15.9499ZM18.558 13.7119C20.0188 12.2915 20.8308 10.3326 20.803 8.29518L20.103 8.30473C20.1282 10.1497 19.3929 11.9237 18.07 13.21L18.558 13.7119ZM20.803 8.30476C20.831 6.26711 20.019 4.30774 18.558 2.88705L18.07 3.38889C19.3931 4.67548 20.1284 6.44987 20.103 8.29515L20.803 8.30476ZM18.5615 2.89046C15.574 -0.0965041 10.7309 -0.0965079 7.74356 2.89047L8.2385 3.38547C10.9525 0.671825 15.3525 0.671821 18.0666 3.38548L18.5615 2.89046ZM7.74704 2.88703C6.28592 4.30764 5.47396 6.26708 5.50202 8.30478L6.20196 8.29514C6.17655 6.44984 6.91184 4.67539 8.23501 3.38891L7.74704 2.88703ZM5.50202 8.29514C5.47397 10.3329 6.28591 12.2923 7.74704 13.7129L8.23501 13.2111C6.91184 11.9246 6.17655 10.1502 6.20196 8.30478L5.50202 8.29514ZM7.74017 13.7061C9.16086 15.1663 11.1197 15.9777 13.1568 15.9499L13.1473 15.25C11.3024 15.2752 9.52848 14.5403 8.24189 13.2179L7.74017 13.7061ZM9.49455 4.64239C10.4646 3.67196 11.7804 3.12676 13.1525 3.12676V2.42676C11.5947 2.42676 10.1008 3.04575 8.99947 4.14753L9.49455 4.64239ZM13.1525 3.12676C14.5246 3.12676 15.8404 3.67196 16.8105 4.6424L17.3056 4.14752C16.2042 3.04575 14.7103 2.42676 13.1525 2.42676V3.12676ZM16.8154 4.6472C17.8049 5.59903 18.3524 6.92052 18.3261 8.29325L19.026 8.30667C19.056 6.73896 18.4307 5.22976 17.3007 4.14272L16.8154 4.6472ZM18.3261 8.30674C18.3527 9.67976 17.8051 11.0017 16.8154 11.9537L17.3007 12.4582C18.431 11.3709 19.0564 9.86125 19.026 8.29317L18.3261 8.30674ZM16.8105 11.9585C15.8405 12.929 14.5246 13.4742 13.1525 13.4742V14.1742C14.7103 14.1742 16.2043 13.5552 17.3056 12.4534L16.8105 11.9585ZM13.1525 13.4742C11.7804 13.4742 10.4646 12.929 9.49455 11.9585L8.99947 12.4534C10.1008 13.5552 11.5947 14.1742 13.1525 14.1742V13.4742ZM9.48956 11.9536C8.49942 11.0018 7.95148 9.67992 7.97793 8.3067L7.27806 8.29322C7.24786 9.86153 7.87363 11.3713 9.00446 12.4583L9.48956 11.9536ZM7.97793 8.29322C7.95148 6.92003 8.49942 5.5981 9.48956 4.64631L9.00446 4.14166C7.87363 5.22868 7.24786 6.73842 7.27806 8.3067L7.97793 8.29322ZM8.89701 4.39398V4.39496H9.59701V4.39398H8.89701Z" fill="white"/>
      <path fill-rule="evenodd" clip-rule="evenodd" d="M25.926 24.307C25.8783 23.6648 25.7961 23.0255 25.68 22.392C25.5654 21.7404 25.4081 21.097 25.209 20.466C25.0079 19.8403 24.7425 19.237 24.417 18.666C24.0969 18.0922 23.6951 17.568 23.224 17.11C22.7275 16.6434 22.145 16.2776 21.509 16.0331C20.8112 15.7627 20.0684 15.6269 19.32 15.633C18.8837 15.6789 18.4706 15.8528 18.133 16.133C17.777 16.365 17.361 16.633 16.897 16.933C16.3946 17.2315 15.8572 17.4666 15.297 17.633C14.027 18.0545 12.655 18.0545 11.385 17.633C10.8248 17.4668 10.2873 17.2317 9.78503 16.933C9.32501 16.639 8.909 16.3711 8.54803 16.133C8.21075 15.8529 7.79803 15.6789 7.362 15.633C6.61359 15.6267 5.87085 15.7625 5.17303 16.0331C4.53699 16.2775 3.95453 16.6433 3.45801 17.11C2.98706 17.5678 2.58514 18.0916 2.26501 18.665C1.93964 19.2361 1.67426 19.8393 1.47302 20.465C1.27411 21.0957 1.11676 21.7387 1.00201 22.39C0.88562 23.0238 0.803467 23.6634 0.756042 24.306C0.716003 24.885 0.695007 25.487 0.695007 26.096C0.631714 27.5197 1.17499 28.9036 2.19 29.904C3.23901 30.8606 4.6236 31.3639 6.04199 31.304H20.641C22.0594 31.3637 23.444 30.8606 24.493 29.904C25.5101 28.9046 26.0552 27.5205 25.993 26.096C25.993 25.485 25.972 24.883 25.932 24.306L25.926 24.307ZM23.268 28.618C22.5491 29.2608 21.6037 29.5905 20.641 29.534H6.047C5.08447 29.5907 4.13904 29.2614 3.41998 28.619C2.76025 27.9518 2.41711 27.0344 2.47699 26.098C2.47699 25.53 2.49603 24.969 2.53302 24.431C2.57599 23.8524 2.65009 23.2766 2.755 22.706C2.85565 22.1309 2.99396 21.563 3.16901 21.006C3.33295 20.4985 3.54871 20.0092 3.81299 19.546C4.04828 19.1223 4.34369 18.735 4.69 18.396C5.02087 18.088 5.40839 17.8473 5.83099 17.687C6.27826 17.5157 6.75214 17.4243 7.23102 17.417C7.29303 17.45 7.40399 17.517 7.58301 17.63C7.948 17.868 8.36902 18.139 8.83398 18.437C9.46277 18.8198 10.137 19.1221 10.841 19.337C12.4647 19.8723 14.2173 19.8723 15.841 19.337C16.5457 19.1222 17.2206 18.8198 17.85 18.437C18.326 18.137 18.735 17.869 19.1 17.631C19.279 17.514 19.39 17.451 19.452 17.418C19.9309 17.4254 20.4047 17.5168 20.852 17.688C21.2745 17.8485 21.662 18.0892 21.993 18.397C22.3395 18.7359 22.6349 19.1233 22.87 19.547C23.1345 20.0102 23.3503 20.4995 23.514 21.007C23.6891 21.564 23.8275 22.1319 23.928 22.707C24.0327 23.2776 24.1068 23.8535 24.15 24.432C24.188 24.968 24.207 25.532 24.207 26.098C24.267 27.0345 23.9239 27.9519 23.264 28.619L23.268 28.618Z" fill="white"/>
      <path d="M25.926 24.307L25.577 24.333L25.6054 24.7159L25.9841 24.6522L25.926 24.307ZM25.68 22.392L25.3353 22.4526L25.3357 22.4551L25.68 22.392ZM25.209 20.466L25.5428 20.3607L25.5422 20.359L25.209 20.466ZM24.417 18.666L24.1113 18.8365L24.1129 18.8393L24.417 18.666ZM23.224 17.11L23.468 16.859L23.4637 16.855L23.224 17.11ZM21.509 16.0331L21.3826 16.3594L21.3834 16.3597L21.509 16.0331ZM19.32 15.633L19.3172 15.283L19.3003 15.2832L19.2834 15.2849L19.32 15.633ZM18.133 16.133L18.3241 16.4262L18.341 16.4152L18.3565 16.4024L18.133 16.133ZM16.897 16.933L17.0759 17.2342L17.0871 17.227L16.897 16.933ZM15.297 17.633L15.1973 17.2973L15.1868 17.3008L15.297 17.633ZM11.385 17.633L11.4953 17.3007L11.4846 17.2975L11.385 17.633ZM9.78503 16.933L9.59645 17.2281L9.60616 17.2339L9.78503 16.933ZM8.54803 16.133L8.32443 16.4023L8.33926 16.4146L8.35535 16.4252L8.54803 16.133ZM7.362 15.633L7.39864 15.2849L7.38184 15.2832L7.36494 15.283L7.362 15.633ZM5.17303 16.0331L5.29861 16.3597L5.29956 16.3594L5.17303 16.0331ZM3.45801 17.11L3.21826 16.855L3.21406 16.859L3.45801 17.11ZM2.26501 18.665L2.56913 18.8383L2.57062 18.8356L2.26501 18.665ZM1.47302 20.465L1.13983 20.3578L1.13923 20.3597L1.47302 20.465ZM1.00201 22.39L1.34627 22.4533L1.34671 22.4508L1.00201 22.39ZM0.756042 24.306L0.406988 24.2802L0.406876 24.2819L0.756042 24.306ZM0.695007 26.096L1.04466 26.1116L1.04501 26.1038V26.096H0.695007ZM2.19 29.904L1.94413 30.1535L1.95417 30.1626L2.19 29.904ZM6.04199 31.304V30.954H6.03462L6.02725 30.9544L6.04199 31.304ZM20.641 31.304L20.6557 30.9544L20.6484 30.954H20.641V31.304ZM24.493 29.904L24.729 30.1628L24.7383 30.1537L24.493 29.904ZM25.993 26.096H25.643V26.1037L25.6433 26.1113L25.993 26.096ZM25.932 24.306L26.2812 24.2818L26.2545 23.8968L25.8739 23.9609L25.932 24.306ZM23.268 28.618L23.5013 28.8789L23.1855 28.2779L23.268 28.618ZM20.641 29.534L20.6615 29.1846L20.6512 29.184H20.641V29.534ZM6.047 29.534V29.184H6.0367L6.02641 29.1846L6.047 29.534ZM3.41998 28.619L3.1711 28.8651L3.17871 28.8728L3.18679 28.88L3.41998 28.619ZM2.47699 26.098L2.82628 26.1203L2.82699 26.1092V26.098H2.47699ZM2.53302 24.431L2.18398 24.4051L2.18384 24.407L2.53302 24.431ZM2.755 22.706L3.09925 22.7693L3.09977 22.7664L2.755 22.706ZM3.16901 21.006L2.83594 20.8984L2.83511 20.9011L3.16901 21.006ZM3.81299 19.546L4.11702 19.7194L4.11896 19.7159L3.81299 19.546ZM4.69 18.396L4.45147 18.1397L4.44517 18.1459L4.69 18.396ZM5.83099 17.687L5.95509 18.0143L5.95617 18.0139L5.83099 17.687ZM7.23102 17.417L7.3954 17.108L7.31582 17.0657L7.22569 17.0671L7.23102 17.417ZM7.58301 17.63L7.77421 17.3368L7.76984 17.334L7.58301 17.63ZM8.83398 18.437L8.64507 18.7318L8.652 18.736L8.83398 18.437ZM10.841 19.337L10.9506 19.0045L10.9432 19.0023L10.841 19.337ZM15.841 19.337L15.7389 19.0021L15.7314 19.0046L15.841 19.337ZM17.85 18.437L18.0319 18.7361L18.0367 18.7331L17.85 18.437ZM19.1 17.631L19.2912 17.9242L19.2916 17.924L19.1 17.631ZM19.452 17.418L19.4574 17.068L19.3672 17.0666L19.2875 17.1091L19.452 17.418ZM20.852 17.688L20.7268 18.0149L20.7277 18.0152L20.852 17.688ZM21.993 18.397L22.2378 18.1467L22.2313 18.1407L21.993 18.397ZM22.87 19.547L22.5639 19.7168L22.5661 19.7206L22.87 19.547ZM23.514 21.007L23.8479 20.9021L23.8471 20.8996L23.514 21.007ZM23.928 22.707L23.5833 22.7673L23.5838 22.7701L23.928 22.707ZM24.207 26.098H23.857V26.1092L23.8577 26.1204L24.207 26.098ZM23.264 28.619L23.0152 28.3728L22.1476 29.2499L23.3465 28.9591L23.264 28.619ZM26.2751 24.2811C26.2264 23.6263 26.1427 22.9746 26.0243 22.3289L25.3357 22.4551C25.4496 23.0763 25.5302 23.7032 25.577 24.333L26.2751 24.2811ZM26.0247 22.3314C25.9075 21.6646 25.7465 21.0063 25.5428 20.3607L24.8752 20.5714C25.0697 21.1877 25.2234 21.8161 25.3353 22.4526L26.0247 22.3314ZM25.5422 20.359C25.3338 19.7102 25.0585 19.0847 24.7211 18.4927L24.1129 18.8393C24.4264 19.3893 24.6821 19.9704 24.8758 20.5731L25.5422 20.359ZM24.7227 18.4955C24.386 17.892 23.9634 17.3408 23.468 16.8591L22.98 17.361C23.4267 17.7953 23.8078 18.2923 24.1113 18.8365L24.7227 18.4955ZM23.4637 16.855C22.9341 16.3573 22.3129 15.9672 21.6347 15.7064L21.3834 16.3597C21.9771 16.588 22.5208 16.9295 22.9843 17.3651L23.4637 16.855ZM21.6355 15.7067C20.8964 15.4203 20.1097 15.2766 19.3172 15.283L19.3229 15.983C20.027 15.9773 20.7259 16.105 21.3826 16.3594L21.6355 15.7067ZM19.2834 15.2849C18.7784 15.338 18.3003 15.5394 17.9095 15.8637L18.3565 16.4024C18.641 16.1663 18.989 16.0197 19.3566 15.9811L19.2834 15.2849ZM17.9419 15.8398C17.5866 16.0713 17.1717 16.3386 16.707 16.6391L17.0871 17.227C17.5503 16.9274 17.9674 16.6587 18.3241 16.4262L17.9419 15.8398ZM16.7183 16.6321C16.2407 16.9158 15.7298 17.1393 15.1973 17.2975L15.3967 17.9685C15.9845 17.7939 16.5485 17.5471 17.0758 17.234L16.7183 16.6321ZM15.1868 17.3008C13.9884 17.6986 12.6936 17.6986 11.4953 17.3008L11.2748 17.9652C12.6163 18.4104 14.0657 18.4104 15.4072 17.9652L15.1868 17.3008ZM11.4846 17.2975C10.9521 17.1395 10.4413 16.916 9.96391 16.6322L9.60616 17.2339C10.1333 17.5473 10.6975 17.7941 11.2855 17.9686L11.4846 17.2975ZM9.97352 16.6381C9.5139 16.3444 9.09956 16.0775 8.74072 15.8408L8.35535 16.4252C8.71844 16.6647 9.13613 16.9337 9.59655 17.228L9.97352 16.6381ZM8.77164 15.8638C8.3812 15.5395 7.90342 15.3381 7.39864 15.2849L7.32536 15.9811C7.69265 16.0198 8.04031 16.1663 8.32443 16.4023L8.77164 15.8638ZM7.36494 15.283C6.57226 15.2764 5.78559 15.4202 5.0465 15.7067L5.29956 16.3594C5.95611 16.1048 6.65492 15.9771 7.35906 15.983L7.36494 15.283ZM5.04746 15.7064C4.36907 15.9671 3.74785 16.3572 3.2183 16.855L3.69772 17.365C4.16121 16.9294 4.7049 16.588 5.29861 16.3597L5.04746 15.7064ZM3.21406 16.859C2.71879 17.3404 2.2961 17.8913 1.95941 18.4944L2.57062 18.8356C2.87419 18.2919 3.25533 17.7951 3.70196 17.361L3.21406 16.859ZM1.96091 18.4917C1.62358 19.0838 1.34845 19.7092 1.13983 20.3578L1.80621 20.5722C2.00006 19.9695 2.2557 19.3884 2.56912 18.8383L1.96091 18.4917ZM1.13923 20.3597C0.935715 21.005 0.774725 21.6629 0.657323 22.3293L1.34671 22.4508C1.4588 21.8145 1.6125 21.1864 1.80682 20.5703L1.13923 20.3597ZM0.657772 22.3268C0.539106 22.9729 0.455345 23.625 0.406992 24.2802L1.10509 24.3318C1.15159 23.7017 1.23213 23.0747 1.34626 22.4533L0.657772 22.3268ZM0.406876 24.2819C0.366274 24.869 0.345007 25.4791 0.345007 26.096H1.04501C1.04501 25.495 1.06573 24.901 1.10521 24.3301L0.406876 24.2819ZM0.345353 26.0805C0.277658 27.6032 0.858712 29.0833 1.94431 30.1533L2.43569 29.6547C1.49126 28.7239 0.98577 27.4363 1.04466 26.1116L0.345353 26.0805ZM1.95417 30.1626C3.07142 31.1815 4.54607 31.7174 6.05674 31.6537L6.02725 30.9544C4.70112 31.0103 3.40661 30.5398 2.42584 29.6454L1.95417 30.1626ZM6.04199 31.654H20.641V30.954H6.04199V31.654ZM20.6263 31.6537C22.137 31.7173 23.6116 31.1814 24.7288 30.1626L24.2572 29.6454C23.2764 30.5397 21.9819 31.0102 20.6557 30.9544L20.6263 31.6537ZM24.7383 30.1537C25.8261 29.0847 26.4092 27.6044 26.3426 26.0808L25.6433 26.1113C25.7012 27.4367 25.194 28.7245 24.2477 29.6544L24.7383 30.1537ZM26.343 26.096C26.343 25.4771 26.3217 24.867 26.2812 24.2818L25.5828 24.3302C25.6223 24.899 25.643 25.4929 25.643 26.096H26.343ZM25.8739 23.9609L25.8679 23.9619L25.9841 24.6522L25.9901 24.6512L25.8739 23.9609ZM23.0347 28.3571C22.3853 28.9378 21.5312 29.2356 20.6615 29.1846L20.6205 29.8834C21.6762 29.9453 22.713 29.5838 23.5013 28.8789L23.0347 28.3571ZM20.641 29.184H6.047V29.884H20.641V29.184ZM6.02641 29.1846C5.15687 29.2359 4.30277 28.9384 3.65318 28.358L3.18679 28.88C3.97531 29.5845 5.01207 29.9456 6.06758 29.8834L6.02641 29.1846ZM3.66887 28.3729C3.07938 27.7767 2.77278 26.957 2.82628 26.1203L2.1277 26.0757C2.06145 27.1118 2.44113 28.1268 3.1711 28.8651L3.66887 28.3729ZM2.82699 26.098C2.82699 25.5377 2.84578 24.9847 2.8822 24.455L2.18384 24.407C2.14629 24.9533 2.12699 25.5223 2.12699 26.098H2.82699ZM2.88206 24.4569C2.9241 23.8909 2.99659 23.3276 3.09923 22.7693L2.41078 22.6427C2.30358 23.2257 2.22788 23.814 2.18398 24.4051L2.88206 24.4569ZM3.09977 22.7664C3.19777 22.2063 3.33245 21.6533 3.50291 21.1109L2.83511 20.9011C2.65547 21.4727 2.51353 22.0555 2.41024 22.6457L3.09977 22.7664ZM3.50206 21.1136C3.65861 20.629 3.86465 20.1618 4.117 19.7194L3.50898 19.3726C3.23277 19.8567 3.00728 20.3681 2.83595 20.8984L3.50206 21.1136ZM4.11896 19.7159C4.33785 19.3218 4.61266 18.9615 4.93483 18.6461L4.44517 18.1459C4.07472 18.5085 3.75871 18.9229 3.50701 19.3761L4.11896 19.7159ZM4.92846 18.6522C5.22617 18.3751 5.57484 18.1585 5.95509 18.0143L5.7069 17.3597C5.24193 17.5361 4.81558 17.801 4.45155 18.1398L4.92846 18.6522ZM5.95617 18.0139C6.36516 17.8572 6.79847 17.7737 7.23635 17.767L7.22569 17.0671C6.7058 17.075 6.19136 17.1742 5.70582 17.3602L5.95617 18.0139ZM7.06664 17.726C7.11541 17.752 7.21571 17.812 7.39618 17.926L7.76984 17.334C7.59228 17.222 7.47065 17.1481 7.3954 17.108L7.06664 17.726ZM7.39183 17.9232C7.758 18.162 8.17994 18.4335 8.64512 18.7317L9.02285 18.1423C8.55809 17.8445 8.138 17.5741 7.77418 17.3368L7.39183 17.9232ZM8.652 18.736C9.30578 19.1339 10.0068 19.4483 10.7388 19.6718L10.9432 19.0023C10.2672 18.7959 9.61976 18.5056 9.01597 18.138L8.652 18.736ZM10.7314 19.6694C12.4263 20.2281 14.2558 20.2282 15.9506 19.6694L15.7314 19.0046C14.1789 19.5164 12.5031 19.5164 10.9506 19.0046L10.7314 19.6694ZM15.9431 19.6718C16.6757 19.4484 17.3775 19.1341 18.0319 18.7361L17.6682 18.138C17.0637 18.5056 16.4156 18.7959 15.7389 19.0022L15.9431 19.6718ZM18.0367 18.7331C18.5154 18.4313 18.9269 18.1617 19.2912 17.9242L18.9089 17.3378C18.5431 17.5763 18.1366 17.8426 17.6634 18.1409L18.0367 18.7331ZM19.2916 17.924C19.4631 17.8118 19.5651 17.7543 19.6165 17.7269L19.2875 17.1091C19.2149 17.1477 19.0949 17.2162 18.9085 17.3381L19.2916 17.924ZM19.4466 17.768C19.8846 17.7747 20.3178 17.8583 20.7268 18.0149L20.9771 17.3612C20.4916 17.1752 19.9773 17.0761 19.4574 17.068L19.4466 17.768ZM20.7277 18.0152C21.1081 18.1596 21.4568 18.3763 21.7546 18.6533L22.2313 18.1407C21.8673 17.8021 21.441 17.5373 20.9762 17.3608L20.7277 18.0152ZM21.7483 18.6472C22.0705 18.9624 22.3453 19.3227 22.5639 19.7168L23.176 19.3772C22.9245 18.9238 22.6084 18.5093 22.2377 18.1468L21.7483 18.6472ZM22.5661 19.7206C22.8185 20.1627 23.0246 20.6299 23.1809 21.1145L23.8471 20.8996C23.676 20.369 23.4504 19.8576 23.1739 19.3735L22.5661 19.7206ZM23.1802 21.112C23.3507 21.6543 23.4853 22.2073 23.5833 22.7673L24.2728 22.6467C24.1696 22.0565 24.0276 21.4737 23.8479 20.9021L23.1802 21.112ZM23.5838 22.7701C23.6861 23.3285 23.7587 23.892 23.801 24.4581L24.4991 24.406C24.4549 23.815 24.3792 23.2268 24.2723 22.6439L23.5838 22.7701ZM23.8009 24.4568C23.8382 24.984 23.857 25.5397 23.857 26.098H24.557C24.557 25.5244 24.5377 24.9521 24.4991 24.4073L23.8009 24.4568ZM23.8577 26.1204C23.9114 26.9571 23.6048 27.7768 23.0152 28.3728L23.5128 28.8651C24.243 28.1269 24.6227 27.1118 24.5563 26.0756L23.8577 26.1204ZM23.3465 28.9591L23.3505 28.9581L23.1855 28.2779L23.1815 28.2788L23.3465 28.9591Z" fill="white"/>
   </symbol>
</svg>